# Blender 5.1.0
# www.blender.org
mtllib Untitled4.mtl
o Cube
v 4.400000 0.880000 -1.760000
v 4.400000 -0.880000 -1.760000
v 4.400000 0.880000 1.760000
v 4.400000 -0.880000 1.760000
v -0.400000 1.000000 -2.000000
v -0.400000 -1.000000 -2.000000
v -0.400000 1.000000 2.000000
v -0.400000 -1.000000 2.000000
v -5.200000 -0.900000 -1.800000
v -5.200000 -0.900000 1.800000
v -5.200000 0.900000 1.800000
v -5.200000 0.900000 -1.800000
v -4.448072 0.086824 -1.492404
v -7.931641 0.086824 -1.492404
v -4.448071 0.383022 -0.678606
v -7.931641 0.383022 -0.678606
v -4.448072 -0.469846 -0.828990
v -7.931641 -0.469846 -0.828990
vn 0.0250 0.9997 -0.0000
vn 0.0499 -0.0000 0.9988
vn -0.0208 -0.9998 -0.0000
vn 0.0250 -0.9997 -0.0000
vn 1.0000 -0.0000 -0.0000
vn 0.0499 -0.0000 -0.9988
vn -1.0000 -0.0000 -0.0000
vn -0.0208 0.9998 -0.0000
vn -0.0416 -0.0000 -0.9991
vn -0.0416 -0.0000 0.9991
vn -0.0000 0.9397 -0.3420
vn -0.0000 -0.1736 0.9848
vn -0.0000 -0.7660 -0.6428
vt 0.333411 0.037592
vt 0.354087 0.525252
vt 0.021898 0.525252
vt 0.042573 0.037592
vt 0.589105 0.217484
vt 0.570298 0.561862
vt 0.429702 0.570298
vt 0.525609 0.208229
vt 0.691855 0.561331
vt 0.391855 0.561331
vt 0.406855 0.950233
vt 0.676855 0.950233
vt 0.693405 0.568004
vt 0.675406 0.047547
vt 0.411405 0.047547
vt 0.393405 0.568004
vt 0.428500 0.571500
vt 0.428500 0.428500
vt 0.571500 0.428500
vt 0.571500 0.571500
vt 0.429907 0.429907
vt 0.429907 0.570093
vt 0.570093 0.561682
vt 0.570093 0.438318
vt 0.430455 0.430455
vt 0.430455 0.569545
vt 0.569545 0.569545
vt 0.569545 0.430455
vt 0.022155 0.526959
vt 0.359317 0.526959
vt 0.307461 0.959089
vt 0.074011 0.959089
vt 0.571082 0.571082
vt 0.571082 0.428918
vt 0.428918 0.436026
vt 0.428918 0.563974
vt 0.521150 0.422003
vt 0.569016 0.262077
vt 0.430984 0.255176
vt 0.523221 0.475684
vt 0.992993 0.336186
vt 0.992993 0.022033
vt 0.930924 0.022033
vt 0.930924 0.336186
vt 0.930789 0.336951
vt 0.930789 0.030569
vt 0.993128 0.030569
vt 0.993128 0.336951
vt 0.938038 0.313861
vt 0.977621 0.285046
vt 0.945352 0.230892
vt 0.996002 0.333760
vt 0.996002 0.033760
vt 0.927915 0.033760
vt 0.927915 0.333760
vt 0.750000 0.490000
vt 0.957846 0.130000
vt 0.542154 0.130000
s 0
usemtl Material
f 1/1/1 5/2/1 7/3/1 3/4/1
f 4/5/2 3/6/2 7/7/2 8/8/2
f 6/9/3 8/10/3 10/11/3 9/12/3
f 6/13/4 2/14/4 4/15/4 8/16/4
f 2/17/5 1/18/5 3/19/5 4/20/5
f 6/21/6 5/22/6 1/23/6 2/24/6
f 10/25/7 11/26/7 12/27/7 9/28/7
f 7/29/8 5/30/8 12/31/8 11/32/8
f 5/33/9 6/34/9 9/35/9 12/36/9
f 8/37/10 7/38/10 11/39/10 10/40/10
f 13/41/11 14/42/11 16/43/11 15/44/11
f 15/45/12 16/46/12 18/47/12 17/48/12
f 16/49/7 14/50/7 18/51/7
f 17/52/13 18/53/13 14/54/13 13/55/13
f 13/56/5 15/57/5 17/58/5
